<svg width="1735" height="1735" viewBox="0 0 1735 1735" fill="none" xmlns="http://www.w3.org/2000/svg">
<g clip-path="url(#clip0_1243_8)">
<g filter="url(#filter0_d_1243_8)">
<path d="M715.715 496C699.817 629.998 700.294 769.734 710.31 904.701C735.904 944.603 764.201 984.664 795.678 1027.11C806.647 980.69 817.616 934.588 827.79 888.009C787.252 756.38 751.324 621.413 715.715 496ZM905.209 535.966C899.009 736.986 852.272 908.993 812.211 1083.86C816.344 1084.34 820.318 1084.98 824.293 1085.61C837.964 1087.84 850.841 1090.86 862.287 1094.99C888.994 1049.37 919.517 997.223 949.404 940.788C957.193 802.641 954.968 666.879 905.209 535.966ZM1088.66 650.028C1061.32 814.723 961.644 983.71 891.538 1102.62C962.28 1060.02 1011.88 1007.56 1055.76 956.208C1072.61 936.496 1088.66 916.783 1104.72 897.865C1120.62 819.969 1119.34 736.668 1088.66 650.028ZM564.485 672.761C562.45 774.344 568.252 859.712 592.941 944.126C616.548 975.603 641.952 1004.69 668.5 1029.97C689.484 1050 711.104 1067.65 732.884 1082.27C742.263 1081.64 751.642 1081.16 760.704 1081.16C775.011 1081 788.842 1081.48 802.036 1082.75C695.366 942.06 618.901 828.713 564.485 672.761ZM1242.71 815.359C1179.91 846.835 1135.08 907.563 1077.54 974.808C1043.67 1014.39 1005.2 1055.72 956.08 1092.92C1001.23 1081 1048.44 1073.53 1094.39 1074.48C1097.09 1074.48 1099.63 1074.64 1102.33 1074.8C1137.79 1016.14 1175.78 933.316 1242.71 815.359ZM501.166 853.512C508.399 930.137 518.43 996.428 540.814 1051.75C550.702 1076.23 562.879 1098.65 578.331 1119.15C613.814 1103.73 651.967 1093.4 689.166 1087.36C689.643 1087.2 690.12 1087.2 690.597 1087.2C676.449 1075.91 662.3 1063.67 648.628 1050.64C592.082 996.428 540.639 926.957 501.166 853.512ZM1086.91 1103.1C1028.89 1103.1 967.049 1117.25 911.091 1136.64C920.63 1157.78 922.855 1177.82 919.358 1195.14C916.178 1210.25 908.866 1223.12 899.486 1233.3C912.363 1235.2 927.942 1234.09 945.588 1228.21C1001.55 1209.61 1044.95 1180.36 1097.25 1163.19C1139.53 1149.36 1187.7 1145.07 1249.38 1161.6C1207.57 1120.43 1153.36 1104.37 1093.75 1103.1H1086.91ZM769.447 1109.14H761.499C740.037 1109.3 717.145 1111.21 693.935 1115.02C613.861 1127.9 531.259 1162.71 486 1221.21C624.783 1186.08 751.96 1210.72 816.185 1238.07C819.523 1239.5 829.539 1240.29 840.667 1237.43C851.795 1234.57 864.036 1228.69 873.574 1220.42C883.271 1212.31 890.266 1201.98 892.81 1189.58C895.512 1177.02 893.922 1161.76 883.589 1142.21C878.343 1132.03 855.451 1119 820.477 1113.27C805.216 1110.57 787.888 1109.14 769.447 1109.14Z" fill="#00FF11"/>
</g>
</g>
<defs>
<filter id="filter0_d_1243_8" x="386" y="446" width="963.384" height="943.357" filterUnits="userSpaceOnUse" color-interpolation-filters="sRGB">
<feFlood flood-opacity="0" result="BackgroundImageFix"/>
<feColorMatrix in="SourceAlpha" type="matrix" values="0 0 0 0 0 0 0 0 0 0 0 0 0 0 0 0 0 0 127 0" result="hardAlpha"/>
<feOffset dy="50"/>
<feGaussianBlur stdDeviation="50"/>
<feComposite in2="hardAlpha" operator="out"/>
<feColorMatrix type="matrix" values="0 0 0 0 0 0 0 0 0 0 0 0 0 0 0 0 0 0 0.5 0"/>
<feBlend mode="normal" in2="BackgroundImageFix" result="effect1_dropShadow_1243_8"/>
<feBlend mode="normal" in="SourceGraphic" in2="effect1_dropShadow_1243_8" result="shape"/>
</filter>
<clipPath id="clip0_1243_8">
<rect width="1735" height="1735" fill="white"/>
</clipPath>
</defs>
</svg>
