<svg width="1735" height="1735" viewBox="0 0 1735 1735" fill="none" xmlns="http://www.w3.org/2000/svg">
<g clip-path="url(#clip0_1243_10)">
<g clip-path="url(#clip1_1243_10)">
<path d="M774.989 319.551V390.713H846.151V319.551H774.989ZM888.849 319.551V390.713H960.011V319.551H888.849ZM1002.71 319.551V390.713H1073.87V319.551H1002.71ZM774.989 433.41V542.525H846.151V433.41H774.989ZM888.849 433.41V542.525H960.011V433.41H888.849ZM1002.71 433.41V542.525H1073.87V433.41H1002.71ZM774.989 585.223V694.338H846.151V585.223H774.989ZM888.849 585.223V694.338H960.011V585.223H888.849ZM1002.71 585.223V694.338H1073.87V585.223H1002.71ZM1415.45 600.66L1192.47 728.076V770.244H1415.45V600.66ZM774.989 737.035V846.15H846.151V737.035H774.989ZM888.849 737.035V846.15H960.011V737.035H888.849ZM1002.71 737.035V846.15H1073.87V737.035H1002.71ZM1192.47 812.941V1073.87H1415.45V812.941H1192.47ZM352.761 867.499V922.057H395.458V867.499H352.761ZM774.989 888.848V997.963H846.151V888.848H774.989ZM888.849 888.848V997.963H960.011V888.848H888.849ZM1002.71 888.848V997.963H1073.87V888.848H1002.71ZM349.35 964.754L332.745 997.963H681.143L664.539 964.754H349.35ZM319.552 1040.66V1415.45H374.109V1360.89H450.016V1415.45H563.875V1360.89H639.781V1415.45H694.339V1040.66H319.552ZM774.989 1040.66V1149.78H846.151V1040.66H774.989ZM888.849 1040.66V1149.78H960.011V1040.66H888.849ZM1002.71 1040.66V1149.78H1073.87V1040.66H1002.71ZM374.109 1095.22H450.016V1133.17H374.109V1095.22ZM563.875 1095.22H639.781V1133.17H563.875V1095.22ZM1192.47 1116.57V1415.45H1266.01V1360.89H1341.91V1415.45H1415.45V1116.57H1192.47ZM374.109 1171.12H450.016V1209.08H374.109V1171.12ZM563.875 1171.12H639.781V1209.08H563.875V1171.12ZM774.989 1192.47V1301.59H846.151V1192.47H774.989ZM888.849 1192.47V1301.59H960.011V1192.47H888.849ZM1002.71 1192.47V1301.59H1073.87V1192.47H1002.71ZM374.109 1247.03H450.016V1284.98H374.109V1247.03ZM563.875 1247.03H639.781V1284.98H563.875V1247.03ZM774.989 1344.29V1415.45H846.151V1344.29H774.989ZM888.849 1344.29V1415.45H960.011V1344.29H888.849ZM1002.71 1344.29V1415.45H1073.87V1344.29H1002.71Z" fill="#003C04"/>
<path d="M1415.45 600.66L1192.47 728.076V770.244H1415.45V600.66ZM349.35 964.754L332.745 997.963H681.143L664.538 964.754H349.35Z" fill="#00FF11"/>
<path d="M1062 286H788L811.455 256H1038.54L1062 286Z" fill="#00FF11"/>
</g>
</g>
<defs>
<clipPath id="clip0_1243_10">
<rect width="1735" height="1735" fill="white"/>
</clipPath>
<clipPath id="clip1_1243_10">
<rect width="1735" height="1735" fill="white"/>
</clipPath>
</defs>
</svg>
