<svg width="1735" height="1735" viewBox="0 0 1735 1735" fill="none" xmlns="http://www.w3.org/2000/svg">
<g clip-path="url(#clip0_1243_7)">
<g filter="url(#filter0_d_1243_7)">
<path d="M803.788 412.013C801.078 412.035 798.368 412.134 795.664 412.31C757.273 414.775 723.931 432.078 707.018 463.978L740.71 487.933H684.68C664.928 477.886 685.467 487.424 662.936 477.84C618.67 452.765 569.68 459.413 534.387 483.215C496.039 509.072 475.639 551.659 495.679 598.083L501.592 611.762L489.224 620.001C448.251 647.45 426.15 678.097 418.261 711.994C410.369 745.897 416.696 784.605 438.392 828.302L443.113 837.917L436.901 846.641C410.529 883.686 419.926 920.555 448.308 944.185C467.506 960.173 485.545 963.266 504.996 958.343C524.45 953.423 545.425 938.942 563.718 916.531L568.793 910.319L576.735 909.961C629.737 907.667 671.718 887.721 699.014 856.974C726.311 826.228 739.576 784.375 732.882 734.817L730.91 720.301L744.768 715.523C760.186 710.232 772.925 699.944 780.731 685.837L790.824 667.555L807.313 680.401C819.527 689.912 851.254 696.451 867.286 691.808L886.936 686.131L889.926 706.384C898.146 762.509 936.553 806.803 985.616 821.37L1001.39 826.031L998.041 842.158C991.997 870.812 1000.9 892.001 1018 906.014C1035.09 920.029 1061.57 926.435 1092.07 918.32L1103.95 915.155L1111.18 925.19C1137.01 961.213 1168.42 978.879 1199.76 981.698C1231.11 984.518 1263.4 972.628 1291.58 944.244C1315.71 919.937 1323.41 893.57 1320.37 866.948C1317.33 840.321 1302.56 813.197 1278.79 791.381L1262.55 776.448L1280.53 763.664C1295.58 752.959 1301.06 733.233 1297.55 714.92C1294.05 696.608 1283.16 683.042 1266.31 680.934L1248.39 678.722L1250.83 660.802C1262 579.435 1224.8 512.377 1164.16 474.132C1103.52 435.882 1019.51 427.326 937.11 468.215L924.264 474.608L915.248 463.376C889.511 431.27 850.213 414.12 811.963 412.182C809.238 412.043 806.51 411.984 803.782 412.004L803.788 412.013ZM801.456 718.447C793.804 727.63 784.506 735.123 774.217 740.969C797.094 798.295 810.21 857.156 818.245 919.756C809.538 941.235 799.749 962.535 788.616 983.671L788.316 983.793C771.992 946.448 753.769 909.327 728.7 877.227C727.72 878.395 726.724 879.55 725.712 880.69C718.777 888.505 711.085 895.673 702.774 902.195C725.777 932.525 743.008 968.773 759.584 1007.21C774.349 1090.15 771.791 1181.67 754.266 1264.9C732.882 1312.5 795.664 1323.2 829.5 1323.2C849.717 1323.2 929.372 1310.94 902.706 1264.85C876.041 1218.75 862.496 1169.02 858.264 1119.57C876.79 1033.22 912.749 982.532 967.22 929.793C930.374 944.474 895.687 962.881 866.508 990.841C867.85 984.323 869.353 977.908 870.924 971.55C889.037 925.439 916.551 883.965 953.004 846.524C941.948 841.353 931.499 835.066 921.879 827.65C897.584 853.555 876.853 881.417 860.114 911.336C873.793 874.659 884.734 837.892 894.642 801.248C884.101 788.537 875.376 774.424 868.716 759.313C860.751 789.955 852.445 820.378 842.911 850.531C834.047 805.927 821.655 762.448 803.964 719.65C803.126 719.26 802.282 718.866 801.454 718.455L801.456 718.447Z" fill="#00FF11"/>
</g>
</g>
<defs>
<filter id="filter0_d_1243_7" x="315" y="362" width="1106" height="1111.21" filterUnits="userSpaceOnUse" color-interpolation-filters="sRGB">
<feFlood flood-opacity="0" result="BackgroundImageFix"/>
<feColorMatrix in="SourceAlpha" type="matrix" values="0 0 0 0 0 0 0 0 0 0 0 0 0 0 0 0 0 0 127 0" result="hardAlpha"/>
<feOffset dy="50"/>
<feGaussianBlur stdDeviation="50"/>
<feComposite in2="hardAlpha" operator="out"/>
<feColorMatrix type="matrix" values="0 0 0 0 0 0 0 0 0 0 0 0 0 0 0 0 0 0 0.5 0"/>
<feBlend mode="normal" in2="BackgroundImageFix" result="effect1_dropShadow_1243_7"/>
<feBlend mode="normal" in="SourceGraphic" in2="effect1_dropShadow_1243_7" result="shape"/>
</filter>
<clipPath id="clip0_1243_7">
<rect width="1735" height="1735" fill="white"/>
</clipPath>
</defs>
</svg>
